<svg width="500" height="500" viewBox="0 0 500 500" fill="none" xmlns="http://www.w3.org/2000/svg">
<path d="M336.878 163.057C341.976 163.057 346.173 159.211 346.173 154.391C346.173 149.57 341.976 145.725 336.878 145.725C331.781 145.725 327.584 149.57 327.584 154.391C327.584 159.211 331.781 163.057 336.878 163.057Z" fill="#322D2D" stroke="black"/>
<path d="M262.755 163.057C269.945 163.057 275.818 157.513 275.818 150.622C275.818 143.73 269.945 138.187 262.755 138.187C255.565 138.187 249.691 143.73 249.691 150.622C249.691 157.513 255.565 163.057 262.755 163.057Z" fill="#322D2D" stroke="black"/>
<rect x="-0.500171" y="-0.50465" width="26.4713" height="32.4158" rx="5.5" transform="matrix(0.999957 0.00930082 0.000384651 1 172.515 86.4837)" fill="#3E3838" stroke="black"/>
<rect x="-0.504843" y="-0.499977" width="33.2723" height="38.0627" rx="5.5" transform="matrix(1 0 0.00968545 0.999953 163.621 197.702)" fill="#3E3838" stroke="black"/>
<mask id="path-5-outside-1_184_1851" maskUnits="userSpaceOnUse" x="167.065" y="51" width="48" height="60" fill="black">
<rect fill="white" x="167.065" y="51" width="48" height="60"/>
<path fill-rule="evenodd" clip-rule="evenodd" d="M213.189 75.4477C213.275 74.7004 213.318 73.9416 213.318 73.1731C213.318 61.4795 203.188 52 190.692 52C178.196 52 168.065 61.4795 168.065 73.1731C168.065 81.9782 173.809 89.5279 181.982 92.7205L186.627 104.244C187.323 105.969 188.919 107.166 190.77 107.35L207.823 109.045C210.766 109.338 213.318 107.027 213.318 104.07V76.59C213.318 76.1937 213.273 75.8118 213.189 75.4477Z"/>
</mask>
<path fill-rule="evenodd" clip-rule="evenodd" d="M213.189 75.4477C213.275 74.7004 213.318 73.9416 213.318 73.1731C213.318 61.4795 203.188 52 190.692 52C178.196 52 168.065 61.4795 168.065 73.1731C168.065 81.9782 173.809 89.5279 181.982 92.7205L186.627 104.244C187.323 105.969 188.919 107.166 190.77 107.35L207.823 109.045C210.766 109.338 213.318 107.027 213.318 104.07V76.59C213.318 76.1937 213.273 75.8118 213.189 75.4477Z" fill="white"/>
<path d="M213.189 75.4477L212.196 75.3343L212.176 75.505L212.215 75.6724L213.189 75.4477ZM181.982 92.7205L182.909 92.3466L182.748 91.9462L182.345 91.789L181.982 92.7205ZM186.627 104.244L185.699 104.618L185.699 104.618L186.627 104.244ZM190.77 107.35L190.671 108.345L190.671 108.345L190.77 107.35ZM207.823 109.045L207.922 108.05L207.922 108.05L207.823 109.045ZM212.318 73.1731C212.318 73.9036 212.277 74.6246 212.196 75.3343L214.183 75.5611C214.272 74.7763 214.318 73.9795 214.318 73.1731H212.318ZM190.692 53C202.699 53 212.318 62.0933 212.318 73.1731H214.318C214.318 60.8658 203.677 51 190.692 51V53ZM169.065 73.1731C169.065 62.0933 178.684 53 190.692 53V51C177.707 51 167.065 60.8658 167.065 73.1731H169.065ZM182.345 91.789C174.513 88.7293 169.065 81.5213 169.065 73.1731H167.065C167.065 82.435 173.105 90.3266 181.618 93.6519L182.345 91.789ZM187.554 103.87L182.909 92.3466L181.054 93.0944L185.699 104.618L187.554 103.87ZM190.869 106.355C189.388 106.208 188.111 105.25 187.554 103.87L185.699 104.618C186.534 106.688 188.449 108.124 190.671 108.345L190.869 106.355ZM207.922 108.05L190.869 106.355L190.671 108.345L207.724 110.04L207.922 108.05ZM212.318 104.07C212.318 106.435 210.276 108.284 207.922 108.05L207.724 110.04C211.255 110.391 214.318 107.618 214.318 104.07H212.318ZM212.318 76.59V104.07H214.318V76.59H212.318ZM212.215 75.6724C212.282 75.9627 212.318 76.2692 212.318 76.59H214.318C214.318 76.1182 214.265 75.6609 214.164 75.223L212.215 75.6724Z" fill="black" mask="url(#path-5-outside-1_184_1851)"/>
<path d="M186.118 91.4465C191.914 91.4465 196.669 87.034 196.669 81.524C196.669 76.0141 191.914 71.6016 186.118 71.6016C180.322 71.6016 175.567 76.0141 175.567 81.524C175.567 87.034 180.322 91.4465 186.118 91.4465Z" fill="#322D2D" stroke="black"/>
<path d="M153.979 143.65L153.979 143.679L153.982 143.707L160.094 196.916C160.272 198.463 160.72 199.966 161.418 201.357L161.565 201.652C163.116 204.744 165.876 207.058 169.192 208.045C170.767 208.514 172.419 208.668 174.054 208.499L185.1 207.359C189.163 206.939 193.117 205.786 196.768 203.955C205.307 199.673 211.633 191.975 214.178 182.769L218.265 167.988C220.562 159.681 220.215 150.865 217.274 142.764L214.498 135.119C211.068 125.674 204.254 117.838 195.377 113.13C176.922 102.608 153.979 115.935 153.979 137.181L153.979 143.65Z" fill="white" stroke="black"/>
<path d="M180.464 279.895C195.647 279.895 207.975 267.87 207.975 253.012C207.975 238.154 195.647 226.129 180.464 226.129C165.281 226.129 152.953 238.154 152.953 253.012C152.953 267.87 165.281 279.895 180.464 279.895Z" fill="#322D2D" stroke="black"/>
<path d="M342.659 152.225V153.889C342.659 158.024 346.468 161.107 350.512 160.247L380.613 153.84C382.507 153.437 383.862 151.764 383.862 149.827C383.862 147.561 382.025 145.725 379.759 145.725H349.159C345.569 145.725 342.659 148.635 342.659 152.225Z" fill="white" stroke="black"/>
<circle cx="178.579" cy="421.361" r="11.807" fill="#322D2D" stroke="black"/>
<path d="M186.117 164.314C198.203 164.314 207.975 154.233 207.975 141.828C207.975 129.423 198.203 119.342 186.117 119.342C174.032 119.342 164.26 129.423 164.26 141.828C164.26 154.233 174.032 164.314 186.117 164.314Z" fill="#322D2D" stroke="black"/>
<path d="M248.587 135.403L210.976 127.266C205.04 125.982 198.859 127.614 194.343 131.658L193.869 132.082C187.968 137.366 186.197 145.89 189.499 153.119C192.403 159.48 198.691 163.618 205.667 163.759L244.447 164.546C250.897 164.677 256.186 159.434 256.221 152.985C256.227 151.905 256.407 150.822 256.753 149.801C258.876 143.537 255.057 136.803 248.587 135.403Z" fill="white" stroke="black"/>
<path d="M325.737 144.528L285.69 139.35C282.43 138.928 279.137 139.797 276.514 141.772L276.111 142.075C270.74 146.117 269.705 153.773 273.808 159.116C276.135 162.146 279.753 163.903 283.568 163.857L324.374 163.36C328.437 163.311 331.538 159.713 331.027 155.685C330.922 154.857 330.999 154.013 331.255 153.221C332.538 149.24 329.888 145.064 325.737 144.528Z" fill="white" stroke="black"/>
<circle cx="182.349" cy="333.418" r="16.8323" fill="#322D2D" stroke="black"/>
<path d="M175.546 430.097L175.297 429.973C170.744 427.707 165.239 429.996 163.634 434.822C163.211 436.091 163.1 437.443 163.308 438.765L163.603 440.635C164.408 445.74 168.807 449.5 173.975 449.5H218.888C222.575 449.5 225.564 446.511 225.564 442.824C225.564 440.066 223.868 437.592 221.296 436.597L197.284 427.308C194.858 426.37 192.171 426.365 189.742 427.295L181.654 430.391C179.666 431.151 177.451 431.045 175.546 430.097Z" fill="white" stroke="black"/>
<path d="M163.21 312.93C164.947 322.299 173.148 329.077 182.675 329.019C192.704 329.067 200.989 321.206 201.466 311.188L203.023 278.467C203.423 270.056 199.355 262.058 192.321 257.428L191.667 256.997C184.585 252.335 175.487 252.038 168.117 256.23C159.767 260.979 155.343 270.497 157.094 279.943L163.21 312.93Z" fill="white" stroke="black"/>
<path d="M194.254 404.615L200.068 361.522C200.839 355.81 198.963 350.044 194.972 345.862L194.519 345.387C188.684 339.274 179.426 337.983 172.197 342.275C166.497 345.659 163.127 351.909 163.419 358.553L165.35 402.441C165.628 408.761 171.152 413.604 177.443 413.131C178.568 413.046 179.71 413.158 180.798 413.462C187.054 415.208 193.386 411.045 194.254 404.615Z" fill="white" stroke="black"/>
</svg>
